<?xml version="1.0" encoding="UTF-8"?>
<svg width="18px" height="14px" viewBox="0 0 18 14" version="1.1" xmlns="http://www.w3.org/2000/svg" xmlns:xlink="http://www.w3.org/1999/xlink">
    <!-- Generator: Sketch 50.2 (55047) - http://www.bohemiancoding.com/sketch -->
    <title>数据中心</title>
    <desc>Created with Sketch.</desc>
    <defs></defs>
    <g id="Page-1" stroke="none" stroke-width="1" fill="none" fill-rule="evenodd">
        <g id="首页" transform="translate(-11.000000, -243.000000)">
            <g id="left_nav" transform="translate(0.000000, -1.000000)">
                <g id="菜单文字-copy-7" transform="translate(0.000000, 231.000000)">
                    <g id="数据中心" transform="translate(12.000000, 12.000000)">
                        <rect id="Rectangle-2" fill-opacity="0.2" fill="#FF0000" opacity="0" x="0" y="0" width="16" height="16"></rect>
                        <g transform="translate(0.000000, 2.000000)" fill="#FFFFFF" fill-rule="nonzero" id="Shape" stroke="#FFFFFF" stroke-width="0.2">
                            <path d="M15.5286287,11 L0.486839587,11 C0.208593411,11.0319185 2.53611824e-17,11.2461507 0,11.5 C-2.53611824e-17,11.7538493 0.208593411,11.9680815 0.486839587,12 L15.5131604,12 C15.7914066,11.9680815 16,11.7538493 16,11.5 C16,11.2461507 15.7914066,11.0319185 15.5131604,11"></path>
                            <path d="M2.49999999,10.9990167 C2.63472139,11.0082779 2.76649051,10.9517794 2.86192871,10.843833 C2.9573669,10.7358866 3.00731868,10.5868478 2.99913067,10.4344697 L2.99913067,6.56553029 C3.00731868,6.41315223 2.9573669,6.26411337 2.8619287,6.15616699 C2.76649051,6.04822061 2.63472139,5.99172213 2.49999999,6.00098326 C2.3652786,5.99172213 2.23350949,6.04822062 2.13807129,6.156167 C2.0426331,6.26411338 1.99268132,6.41315223 2.00086933,6.56553029 L2.00086933,10.4344697 C2.00195498,10.7457504 2.22478868,10.9977888 2.49999999,10.9990167"></path>
                            <path d="M6.49988747,8.99924843 C6.63463919,9.00632728 6.76643796,8.96314207 6.86189764,8.88063212 C6.95735731,8.79812217 7.00732033,8.68420275 6.99913048,8.56773098 L6.99913048,0.428832476 C7.00614367,0.312938116 6.95566047,0.199956148 6.86034189,0.118222027 C6.76502332,0.0364879058 6.63391102,-0.00624528766 6.49988747,0.000739770891 C6.36586393,-0.00624528438 6.23475164,0.0364879106 6.13943306,0.118222031 C6.04411449,0.199956152 5.9936313,0.312938118 6.00064448,0.428832476 L6.00064448,8.56773098 C6.00173038,8.80566162 6.22461423,8.99830984 6.49988747,8.99924843"></path>
                            <path d="M9.495565,9.99923884 C9.63148138,10.006408 9.76441929,9.9626716 9.86070402,9.87910848 C9.95698875,9.79554535 10.0073836,9.68017185 9.99912296,9.56221341 L9.99912296,4.38207472 C9.96723245,4.1637054 9.75318816,4 9.49956148,4 C9.2459348,4 9.03189051,4.1637054 9,4.38207472 L9,9.56221341 C9.00109529,9.80318105 9.22590553,9.99828827 9.50355798,9.99923884"></path>
                            <path d="M13.495565,11.9989259 C13.6314814,12.0090426 13.7644193,11.9473246 13.860704,11.8294058 C13.9569887,11.711487 14.0073836,11.5486795 13.999123,11.3822243 L13.999123,6.53915879 C13.9672324,6.23101032 13.7531882,6 13.4995615,6 C13.2459348,6 13.0318905,6.23101032 13,6.53915879 L13,11.3822243 C13.0010317,11.7184965 13.2210389,11.9922825 13.495565,11.9989259"></path>
                        </g>
                    </g>
                </g>
            </g>
        </g>
    </g>
</svg>