<?xml version="1.0" encoding="UTF-8"?>
<svg width="16px" height="16px" viewBox="0 0 16 16" version="1.1" xmlns="http://www.w3.org/2000/svg" xmlns:xlink="http://www.w3.org/1999/xlink">
    <!-- Generator: Sketch 50.2 (55047) - http://www.bohemiancoding.com/sketch -->
    <title>错误</title>
    <desc>Created with Sketch.</desc>
    <defs></defs>
    <g id="Page-1" stroke="none" stroke-width="1" fill="none" fill-rule="evenodd">
        <g id="注册校验失败" transform="translate(-806.000000, -262.000000)" fill="#E55339" fill-rule="nonzero">
            <g id="Group-10-Copy">
                <g id="Group-22" transform="translate(503.000000, 134.000000)">
                    <g id="手机号码" transform="translate(30.000000, 116.000000)">
                        <g id="校验2" transform="translate(203.000000, 12.000000)">
                            <g id="错误" transform="translate(70.000000, 0.000000)">
                                <path d="M8,0 C3.58222222,0 0,3.58222222 0,8 C0,12.4177778 3.58222222,16 8,16 C12.4177778,16 16,12.4177778 16,8 C16,3.58222222 12.4177778,0 8,0 Z M8,12.8764444 C7.53066667,12.8764444 7.15022222,12.496 7.15022222,12.0266667 C7.15022222,11.5573333 7.53066667,11.1768889 8,11.1768889 C8.46933333,11.1768889 8.84977778,11.5573333 8.84977778,12.0266667 C8.84977778,12.496 8.46933333,12.8764444 8,12.8764444 Z M8.34844444,9.28177778 C8.064,9.88622222 7.904,9.88088889 7.65155556,9.28177778 C7.39733333,8.68266667 6.84266667,4.53511111 6.84266667,4.53511111 C6.84266667,2.64711111 9.15733333,2.66133333 9.15733333,4.53511111 C9.15733333,4.53333333 8.63288889,8.67733333 8.34844444,9.28177778 Z" id="Shape"></path>
                            </g>
                        </g>
                    </g>
                </g>
            </g>
        </g>
    </g>
</svg>