<?xml version="1.0" encoding="UTF-8"?>
<svg width="19px" height="19px" viewBox="0 0 19 19" version="1.1" xmlns="http://www.w3.org/2000/svg" xmlns:xlink="http://www.w3.org/1999/xlink">
    <!-- Generator: Sketch 50.2 (55047) - http://www.bohemiancoding.com/sketch -->
    <title>top</title>
    <desc>Created with Sketch.</desc>
    <defs></defs>
    <g id="Page-1" stroke="none" stroke-width="1" fill="none" fill-rule="evenodd">
        <g id="首页" transform="translate(-229.000000, -16.000000)">
            <g id="top">
                <rect id="Rectangle" fill="#FFFFFF" x="0" y="0" width="1366" height="50"></rect>
                <g id="菜单" transform="translate(229.000000, 19.000000)" fill="#000000" fill-rule="nonzero">
                    <path d="M1.15758437,0 C0.546500888,0 0,0.528701721 0,1.11988262 C0,1.71106353 0.546500888,2.20862876 1.15758437,2.20862876 C1.76845471,2.20862876 2.28298401,1.71085732 2.28298401,1.11988262 C2.28298401,0.528907923 1.76845471,0 1.15758437,0 Z M18,1.10421128 C18,1.58816718 17.635524,1.98056943 17.1862167,1.98056943 L4.82195382,1.98056943 C4.37264654,1.98056943 4.00838366,1.58816718 4.00838366,1.10421128 C4.00838366,0.620255373 4.37264654,0.227853121 4.82195382,0.227853121 L17.1862167,0.227853121 C17.635524,0.227853121 18,0.620255373 18,1.10421128 Z M1.15758437,5.39568562 C0.546500888,5.39568562 0,5.92438734 0,6.51556824 C0,7.10674915 0.546500888,7.60431438 1.15758437,7.60431438 C1.76845471,7.60431438 2.28298401,7.10654295 2.28298401,6.51556824 C2.28298401,5.92459354 1.76845471,5.39568562 1.15758437,5.39568562 Z M18,6.4998969 C18,6.9838528 17.635524,7.37625506 17.1862167,7.37625506 L4.82195382,7.37625506 C4.37264654,7.37625506 4.00838366,6.9838528 4.00838366,6.4998969 C4.00838366,6.01573479 4.37264654,5.62353874 4.82195382,5.62353874 L17.1862167,5.62353874 C17.635524,5.62353874 18,6.01573479 18,6.4998969 Z M1.15758437,10.7913712 C0.546500888,10.7913712 0,11.320073 0,11.9112539 C0,12.5024348 0.546500888,13 1.15758437,13 C1.76845471,13 2.28298401,12.5022286 2.28298401,11.9112539 C2.28298401,11.3202792 1.76845471,10.7913712 1.15758437,10.7913712 Z M18,11.8955825 C18,12.3795384 17.635524,12.7719407 17.1862167,12.7719407 L4.82195382,12.7719407 C4.37264654,12.7719407 4.00838366,12.3795384 4.00838366,11.8955825 C4.00838366,11.4114204 4.37264654,11.0192244 4.82195382,11.0192244 L17.1862167,11.0192244 C17.635524,11.0192244 18,11.4114204 18,11.8955825 Z" id="Shape"></path>
                </g>
            </g>
        </g>
    </g>
</svg>