<?xml version="1.0" encoding="UTF-8"?>
<svg width="35px" height="35px" viewBox="0 0 35 35" version="1.1" xmlns="http://www.w3.org/2000/svg" xmlns:xlink="http://www.w3.org/1999/xlink">
    <!-- Generator: Sketch 50.2 (55047) - http://www.bohemiancoding.com/sketch -->
    <title>菜单缩小首页</title>
    <desc>Created with Sketch.</desc>
    <defs></defs>
    <g id="Page-1" stroke="none" stroke-width="1" fill="none" fill-rule="evenodd">
        <g id="菜单缩小首页" transform="translate(-20.000000, -9.000000)" fill="#FFFFFF" fill-rule="nonzero">
            <g id="客户管家logo" transform="translate(20.000000, 9.000000)">
                <g id="Group-22">
                    <path d="M33.6077778,10.8307692 C30.1482966,2.71332556 21.0322381,-1.49071286 12.5211767,1.10629445 C4.01011528,3.70330177 -1.12637585,12.2562661 0.639820405,20.8903872 C2.40601666,29.5245083 10.5001647,35.4301682 19.3626128,34.5509286 C28.2250609,33.6716891 34.9718915,26.2936621 34.9688889,17.4846154 C34.9708483,15.1988447 34.5079669,12.93603 33.6077778,10.8307692 Z M32.0133333,23.4730769 C28.9046083,30.7803983 20.7029149,34.568968 13.0418237,32.2364971 C5.3807325,29.9040262 0.753258545,22.20953 2.33791634,14.4381961 C3.92257413,6.66686215 11.2036962,1.34757979 19.1800329,2.13405217 C27.1563697,2.92052455 33.2323213,9.55682372 33.2344444,17.4846154 C33.2375232,19.5415543 32.8222511,21.5780938 32.0133333,23.4730769 Z" id="Shape"></path>
                    <path d="M30.5472222,11.5346154 L28.3033333,11.5346154 C28.2212795,13.1991806 26.8752826,14.5303863 25.1922222,14.6115385 C25.4409981,15.1161305 25.60893,15.6559116 25.69,16.2115385 C25.69,16.2923077 25.7094444,16.3730769 25.7172222,16.4538462 L25.7172222,16.5153846 C25.7172222,16.6038462 25.7172222,16.6923077 25.7172222,16.7807692 C25.7172222,16.8474359 25.7172222,16.9153846 25.7172222,16.9846154 C25.7201026,17.475501 25.6560059,17.9645271 25.5266667,18.4384615 C26.8642717,18.8807833 27.7652133,20.1204928 27.7627778,21.5153846 C27.7627778,21.5435897 27.7627778,21.5717949 27.7627778,21.6 L30.0066667,21.6 C30.0066667,21.5730769 30.0066667,21.5461538 30.0066667,21.5153846 C30.0023934,19.3757462 28.7343488,17.4359356 26.7633333,16.5538462 C28.9659988,15.8337226 30.4780731,13.8279951 30.5472222,11.5346154 Z" id="Shape"></path>
                    <polygon id="Shape" points="18.2933333 14.6076923 19.4366667 12.3884615 9.63666667 12.3884615 8.32611111 14.9269231 7.07 12.3961538 7.06222222 12.3884615 4.48 12.3884615 6.71222222 16.8307692 6.72388889 16.85 7.33444444 16.85 4.88444444 21.6076923 7.41222222 21.6076923 11.0172222 14.6076923 13.7277778 14.6076923 10.1227778 21.6076923 12.7127778 21.6076923 16.3177778 14.6076923"></polygon>
                    <path d="M24.5894444,12.7346154 C25.5473517,12.7346154 26.3238889,11.9666115 26.3238889,11.0192308 C26.3238889,10.3254225 25.9013051,9.69993098 25.2531876,9.43442203 C24.6050701,9.16891309 23.8590547,9.31567411 23.363007,9.80627068 C22.8669594,10.2968672 22.7185677,11.0346847 22.9870267,11.67568 C23.2554858,12.3166753 23.8879272,12.7346154 24.5894444,12.7346154 Z" id="Shape"></path>
                    <path d="M24.8577778,16.9923077 C24.8583737,14.4818484 22.8299797,12.4313163 20.2922222,12.3769231 L19.1566667,14.5923077 L20.2105556,14.5923077 C21.3596706,14.5932713 22.3484158,15.3961337 22.5730884,16.5106875 C22.7977609,17.6252412 22.1959192,18.7417272 21.1350327,19.1784471 C20.0741462,19.615167 18.8490588,19.2507469 18.2077778,18.3076923 L16.6133333,19.9 C17.8667982,21.3806502 19.9197922,21.9329814 21.758913,21.284351 C23.5980339,20.6357205 24.8344253,18.9232723 24.8577778,16.9923077 Z" id="Shape"></path>
                    <path d="M16.2322222,23.2423077 C15.8042996,23.2421643 15.4274513,23.5209116 15.3066667,23.9269231 C15.2616212,24.0634802 15.2392937,24.206365 15.2405556,24.35 C15.2346011,24.4293781 15.2346011,24.5090834 15.2405556,24.5884615 C15.2924261,25.0850168 15.7158112,25.4622083 16.2205556,25.4615385 C16.6919986,25.4818216 17.105166,25.1522836 17.185,24.6923077 L16.8855556,24.6923077 C16.8212202,24.9873183 16.5568113,25.1974835 16.2516667,25.1961538 C16.0649008,25.1901977 15.8883984,25.1102283 15.7618658,24.9742357 C15.6353332,24.8382431 15.5693965,24.6576478 15.5788889,24.4730769 L17.2511111,24.4730769 C17.22,23.8461538 16.9672222,23.2423077 16.2322222,23.2423077 Z M15.5711111,24.2076923 C15.5770187,23.8464591 15.8672114,23.5527022 16.2322222,23.5384615 C16.6483333,23.5384615 16.8622222,23.8038462 16.9011111,24.2076923 L15.5711111,24.2076923 Z" id="Shape"></path>
                    <path d="M27.5061111,24.3153846 C27.3136581,24.2403165 27.1161409,24.1786281 26.915,24.1307692 C26.787666,24.1042315 26.6663762,24.0546841 26.5572222,23.9846154 C26.4842151,23.9319079 26.4517172,23.840077 26.4755556,23.7538462 C26.5261111,23.5653846 26.7788889,23.5192308 26.9422222,23.5192308 C27.0650622,23.5125785 27.1874118,23.539173 27.2961111,23.5961538 C27.4123319,23.6759469 27.4864827,23.8028745 27.4983333,23.9423077 L27.8094444,23.9423077 C27.8011495,23.734184 27.705274,23.5389626 27.545,23.4038462 C27.3707579,23.2848611 27.1614048,23.2266698 26.95,23.2384615 C26.6466667,23.2384615 26.2461111,23.3576923 26.1722222,23.6923077 C26.1459881,23.7956452 26.1527812,23.9044842 26.1916667,24.0038462 C26.2776711,24.1682092 26.430439,24.2885209 26.6116667,24.3346154 C26.8061111,24.4038462 27.0005556,24.4461538 27.2066667,24.5076923 C27.4127778,24.5692308 27.5527778,24.6269231 27.5527778,24.8192308 C27.5527778,25.1115385 27.2727778,25.1769231 27.0238889,25.1807692 C26.635,25.1807692 26.46,25.0653846 26.4055556,24.6884615 L26.0944444,24.6884615 C26.0974622,25.021857 26.317299,25.3153753 26.6388889,25.4153846 C26.7657855,25.4482282 26.896627,25.4637566 27.0277778,25.4615385 C27.1429604,25.461645 27.2577784,25.4487408 27.37,25.4230769 C27.5623436,25.3883447 27.7267445,25.2656858 27.8133333,25.0923077 C27.8710211,24.9602042 27.884643,24.8133564 27.8522222,24.6730769 C27.7980651,24.5078701 27.6706129,24.3761532 27.5061111,24.3153846 Z" id="Shape"></path>
                    <path d="M20.8133333,23.2423077 C20.537908,23.2319832 20.2775276,23.3665954 20.1288889,23.5961538 L20.1288889,23.3 L19.8255556,23.3 L19.8255556,26.1923077 L20.1405556,26.1923077 C20.1405556,25.8282051 20.1405556,25.4628205 20.1405556,25.0961538 C20.2807318,25.3363039 20.5407473,25.4832514 20.8211111,25.4807692 C21.3177934,25.4712547 21.7222277,25.0830291 21.7466667,24.5923077 C21.7664129,24.4455185 21.7664129,24.2967892 21.7466667,24.15 C21.7207419,23.6537918 21.3154198,23.2596049 20.8133333,23.2423077 Z M20.7783333,25.1884615 C20.4319089,25.176434 20.1544866,24.9003771 20.1444444,24.5576923 C20.1288073,24.4299536 20.1288073,24.3008157 20.1444444,24.1730769 C20.1542621,23.8226225 20.4358843,23.5390615 20.79,23.5230769 C21.2761111,23.5230769 21.4511111,23.9461538 21.4511111,24.3615385 C21.4511111,24.7769231 21.2605556,25.1884615 20.7783333,25.1884615 Z" id="Shape"></path>
                    <path d="M29.6294444,24.3153846 C29.4369872,24.2403283 29.2394708,24.1786401 29.0383333,24.1307692 C28.9109994,24.1042315 28.7897095,24.0546841 28.6805556,23.9846154 C28.6075485,23.9319079 28.5750505,23.840077 28.5988889,23.7538462 C28.6494444,23.5653846 28.9022222,23.5192308 29.0655556,23.5192308 C29.1884116,23.5123818 29.310814,23.5389878 29.4194444,23.5961538 C29.5356653,23.6759469 29.6098161,23.8028745 29.6216667,23.9423077 L29.9327778,23.9423077 C29.9244828,23.734184 29.8286074,23.5389626 29.6683333,23.4038462 C29.4940912,23.2848611 29.2847381,23.2266698 29.0733333,23.2384615 C28.77,23.2384615 28.3694444,23.3576923 28.2955556,23.6923077 C28.2693214,23.7956452 28.2761145,23.9044842 28.315,24.0038462 C28.4010045,24.1682092 28.5537723,24.2885209 28.735,24.3346154 C28.9294444,24.4038462 29.1238889,24.4461538 29.33,24.5076923 C29.5361111,24.5692308 29.6761111,24.6269231 29.6761111,24.8192308 C29.6761111,25.1115385 29.3961111,25.1769231 29.1472222,25.1807692 C28.7583333,25.1807692 28.5833333,25.0653846 28.5288889,24.6884615 L28.2177778,24.6884615 C28.2169146,25.0191661 28.4298687,25.3134061 28.7466667,25.4192308 C28.8735541,25.4521219 29.0044023,25.4676511 29.1355556,25.4653846 C29.2507381,25.4654911 29.3655562,25.452587 29.4777778,25.4269231 C29.6701213,25.3921909 29.8345222,25.269532 29.9211111,25.0961538 C29.9787988,24.9640503 29.9924208,24.8172026 29.96,24.6769231 C29.9101977,24.5134887 29.7888659,24.3807846 29.6294444,24.3153846 Z" id="Shape"></path>
                    <path d="M22.5905556,23.5730769 L22.5905556,23.3 L22.2755556,23.3 L22.2755556,25.4115385 L22.5905556,25.4115385 C22.5905556,25.0397436 22.5905556,24.6692308 22.5905556,24.3 C22.5911015,24.1668142 22.6216572,24.0354232 22.68,23.9153846 C22.7512778,23.7666681 22.8801553,23.6526427 23.0375031,23.5990809 C23.194851,23.5455191 23.367386,23.5569425 23.5161111,23.6307692 L23.5161111,23.3153846 C23.1851571,23.1689001 22.7956381,23.2773496 22.5905556,23.5730769 Z" id="Shape"></path>
                    <path d="M24.7372222,23.2423077 C24.3092996,23.2421643 23.9324513,23.5209116 23.8116667,23.9269231 C23.7666212,24.0634802 23.7442937,24.206365 23.7455556,24.35 C23.7396436,24.4293797 23.7396436,24.5090819 23.7455556,24.5884615 C23.7974261,25.0850168 24.2208112,25.4622083 24.7255556,25.4615385 C25.1969986,25.4818216 25.610166,25.1522836 25.69,24.6923077 L25.3711111,24.6923077 C25.3067757,24.9873183 25.0423669,25.1974835 24.7372222,25.1961538 C24.5510617,25.1862861 24.3766825,25.1029793 24.2531446,24.9648939 C24.1296067,24.8268084 24.0672349,24.6454848 24.08,24.4615385 L25.7522222,24.4615385 C25.7288889,23.8461538 25.4761111,23.2423077 24.7372222,23.2423077 Z M24.08,24.2076923 C24.0859075,23.8464591 24.3761003,23.5527022 24.7411111,23.5384615 C25.1572222,23.5384615 25.3711111,23.8038462 25.41,24.2076923 L24.08,24.2076923 Z" id="Shape"></path>
                    <path d="M19.4133333,23.2961538 L19.0244444,23.2961538 L18.4527778,24.0653846 C18.2622222,23.8115385 18.0638889,23.5576923 17.8811111,23.2961538 L17.4922222,23.2961538 L18.27,24.2961538 L17.43,25.4076923 L17.8188889,25.4076923 L18.4761111,24.5346154 L19.1294444,25.4076923 L19.5183333,25.4076923 L18.6666667,24.2961538 L19.4133333,23.2961538 Z" id="Shape"></path>
                </g>
            </g>
        </g>
    </g>
</svg>