<?xml version="1.0" encoding="UTF-8"?>
<svg width="19px" height="19px" viewBox="0 0 19 19" version="1.1" xmlns="http://www.w3.org/2000/svg" xmlns:xlink="http://www.w3.org/1999/xlink">
    <!-- Generator: Sketch 50.2 (55047) - http://www.bohemiancoding.com/sketch -->
    <title>top</title>
    <desc>Created with Sketch.</desc>
    <defs></defs>
    <g id="Page-1" stroke="none" stroke-width="1" fill="none" fill-rule="evenodd">
        <g id="首页" transform="translate(-1328.000000, -15.000000)" fill="#000000" fill-rule="nonzero" stroke="#000000" stroke-width="0.3">
            <g id="top">
                <g id="退出" transform="translate(1328.000000, 15.000000)">
                    <g id="Group-8" transform="translate(2.000000, 2.000000)">
                        <path d="M15.7982747,7.09171901 L12.5872483,4.17505972 C12.3303662,3.94164676 11.9450431,3.94164676 11.6881788,4.17505972 C11.4312967,4.40832101 11.4312967,4.75836461 11.6881788,4.99177757 L13.8073758,6.91671406 L7.64220527,6.91671406 C7.25688211,6.91671406 7,7.14997535 7,7.50001896 C7,7.85006256 7.25688211,8.08332385 7.64220527,8.08332385 L13.8073758,8.08332385 L11.6883217,10.0082603 C11.4314396,10.2416733 11.4314396,10.5917169 11.6883217,10.8249782 C11.8167806,10.9417605 11.9452038,11 12.137785,11 C12.3305449,11 12.458968,10.9416088 12.5874091,10.8249782 L15.7984354,7.85006256 C15.7984354,7.85006256 15.7984354,7.79167141 15.8627363,7.79167141 C16.0553175,7.6166496 16.0553175,7.26675767 15.7984354,7.09173586 L15.7982747,7.09171901 Z" id="Shape"></path>
                        <path d="M14.3478261,12.3076841 C13.9565217,12.3076841 13.6956522,12.5539238 13.6956522,12.9230434 L13.6956522,14.1539221 C13.6956522,14.5230416 13.4347826,14.7692814 13.0434783,14.7692814 L1.95652174,14.7692814 C1.56521739,14.7692814 1.30434783,14.5230416 1.30434783,14.1539221 L1.30434783,1.84607795 C1.30434783,1.47695836 1.56521739,1.23071863 1.95652174,1.23071863 L13.0434783,1.23071863 C13.4347826,1.23071863 13.6956522,1.47695836 13.6956522,1.84607795 L13.6956522,3.07695658 C13.6956522,3.44609395 13.9565217,3.6923159 14.3478261,3.6923159 C14.7391304,3.6923159 15,3.44607617 15,3.07695658 L15,1.84607795 C15,0.799999111 14.1522737,0 13.0434783,0 L1.95652174,0 C0.847907711,0 0,0.799999111 0,1.84607795 L0,14.1539221 C-2.57765227e-16,15.2000009 0.847925849,16 1.95652174,16 L13.0434783,16 C14.1522555,16 15,15.2000009 15,14.1539221 L15,12.9230434 C15,12.5539061 14.7391304,12.3076841 14.3478261,12.3076841 Z" id="Shape"></path>
                    </g>
                </g>
            </g>
        </g>
    </g>
</svg>