<?xml version="1.0" encoding="utf-8"?>
<!-- Generator: Adobe Illustrator 21.0.0, SVG Export Plug-In . SVG Version: 6.00 Build 0)  -->
<svg version="1.1" id="图层_1" xmlns="http://www.w3.org/2000/svg" xmlns:xlink="http://www.w3.org/1999/xlink" x="0px" y="0px"
	 viewBox="0 0 300 100" style="enable-background:new 0 0 300 100;" xml:space="preserve">
<style type="text/css">
	.st0{fill:#FFFFFF;}
	.st1{font-family:'SourceHanSansCN-Bold-GBpc-EUC-H';}
	.st2{font-size:32.3333px;}
	.st3{font-family:'SourceHanSansCN-Regular-GBpc-EUC-H';}
</style>
<g>
	<path class="st0" d="M96.3,30.5c-2.5-6-6.1-11.3-10.7-15.9C81,10.1,75.7,6.4,69.7,3.9C63.6,1.3,57,0,50.3,0C43.5,0,37,1.3,30.8,3.9
		c-6,2.5-11.3,6.1-15.9,10.7c-4.6,4.6-8.2,9.9-10.7,15.9C1.6,36.7,0.3,43.3,0.3,50c0,6.7,1.3,13.3,3.9,19.5
		c2.5,6,6.1,11.3,10.7,15.9c4.6,4.6,9.9,8.2,15.9,10.7c6.2,2.6,12.7,3.9,19.5,3.9c6.7,0,13.3-1.3,19.5-3.9c6-2.5,11.3-6.1,15.9-10.7
		c4.6-4.6,8.2-9.9,10.7-15.9c2.6-6.2,3.9-12.7,3.9-19.5C100.3,43.3,98.9,36.7,96.3,30.5z M91.7,67.5c-2.3,5.4-5.5,10.2-9.6,14.3
		c-4.1,4.1-8.9,7.4-14.3,9.6C62.2,93.8,56.3,95,50.3,95c-6.1,0-12-1.2-17.5-3.5c-5.4-2.3-10.2-5.5-14.3-9.6
		c-4.1-4.1-7.4-8.9-9.6-14.3C6.5,62,5.3,56.1,5.3,50s1.2-12,3.5-17.5c2.3-5.4,5.5-10.2,9.6-14.3c4.1-4.1,8.9-7.4,14.3-9.6
		C38.3,6.2,44.2,5,50.3,5c6.1,0,12,1.2,17.5,3.5c5.4,2.3,10.2,5.5,14.3,9.6c4.1,4.1,7.4,8.9,9.6,14.3c2.3,5.5,3.5,11.4,3.5,17.5
		S94.1,62,91.7,67.5z"/>
	<path class="st0" d="M87.5,32.6H81c-0.2,4.9-4.2,8.8-9,9c0.7,1.5,1.2,3,1.4,4.7c0,0,0,0,0,0.1c0,0.2,0.1,0.5,0.1,0.7
		c0,0.1,0,0.1,0,0.2c0,0.3,0,0.5,0,0.8l0,0c0,0.2,0,0.4,0,0.6c0,1.5-0.2,2.9-0.6,4.3c3.8,1.3,6.5,4.8,6.5,9c0,0.1,0,0.2,0,0.2h6.5
		c0-0.1,0-0.2,0-0.2c0-6.5-3.8-12-9.4-14.5C82.8,45.2,87.3,39.5,87.5,32.6z"/>
	<polygon class="st0" points="52,41.6 55.4,35.1 27,35.1 23.2,42.5 19.6,35.1 19.6,35.1 12.1,35.1 18.6,48.1 18.6,48.2 20.4,48.2 
		13.3,62.1 20.6,62.1 31,41.6 38.8,41.6 28.4,62.1 35.9,62.1 46.3,41.6 	"/>
	<path class="st0" d="M70.2,36.1c1.3,0,2.6-0.5,3.5-1.5c0.9-0.9,1.5-2.2,1.5-3.5v0c0-1.3-0.5-2.6-1.5-3.5c-0.9-0.9-2.2-1.5-3.5-1.5
		c-1.3,0-2.6,0.5-3.5,1.5c-0.9,0.9-1.5,2.2-1.5,3.5c0,1.3,0.5,2.6,1.5,3.5C67.6,35.6,68.9,36.1,70.2,36.1z"/>
	<path class="st0" d="M71,48.6c0-7.3-5.9-13.3-13.2-13.5l-3.3,6.5h3.1c3.9,0,7,3.1,7,7c0,3.9-3.1,7-7,7c-2.4,0-4.5-1.2-5.8-3.1
		l-4.6,4.6l0,0c2.5,3,6.2,4.9,10.4,4.9C65,62,71,56,71,48.6z"/>
	<polygon class="st0" points="77.4,68.9 77.4,68.9 77.4,68.9 	"/>
	<g>
		<path class="st0" d="M46.1,66.8c-1.3,0-2.3,0.8-2.7,2c-0.1,0.4-0.2,0.8-0.2,1.2h0c0,0.2,0,0.5,0,0.7c0.2,1.4,1.3,2.6,2.8,2.6
			c1.5,0,2.4-0.9,2.8-2.3c-0.3,0-0.6,0-0.9,0c-0.3,0.9-0.9,1.5-1.8,1.5v0h0c-1.2,0-1.9-1-1.9-2.1c1.6,0,3.2,0,4.8,0
			C48.9,68.6,48.2,66.8,46.1,66.8z M44.2,69.6c0.1-1.1,0.8-2,1.9-2c1.2,0,1.8,0.8,1.9,2L44.2,69.6L44.2,69.6z"/>
		<path class="st0" d="M78.7,70c-0.5-0.2-1.1-0.4-1.7-0.5c-0.3-0.1-0.8-0.2-1-0.4c-0.2-0.2-0.3-0.4-0.2-0.7c0.1-0.6,0.9-0.7,1.4-0.7
			c0.3,0,0.7,0,1,0.2c0.3,0.2,0.5,0.5,0.6,1c0.3,0,0.6,0,0.9,0c-0.1-0.6-0.3-1.2-0.8-1.6c-0.4-0.3-1-0.5-1.7-0.5
			c-0.9,0-2,0.4-2.3,1.3c-0.1,0.3-0.1,0.6,0.1,0.9c0.2,0.5,0.7,0.8,1.2,1c0.6,0.2,1.2,0.3,1.7,0.5c0.5,0.1,1,0.4,1,0.9
			c0,0.9-0.8,1-1.5,1.1c-1.1,0-1.6-0.3-1.8-1.4c-0.3,0-0.6,0-0.9,0c0.1,1,0.5,1.8,1.6,2.1c0.4,0.1,0.8,0.1,1.2,0.1
			c0.4,0,0.7,0,1-0.1c0.5-0.1,1-0.4,1.3-1c0.2-0.4,0.2-0.8,0.1-1.2C79.5,70.5,79.1,70.2,78.7,70z"/>
		<path class="st0" d="M59.3,66.8c-0.8,0-1.5,0.3-2,1c0-0.3,0-0.6,0-0.9c-0.3,0-0.6,0-0.9,0c0,2.8,0,5.6,0,8.5c0.3,0,0.6,0,0.9,0
			c0-1.1,0-2.1,0-3.2c0.4,0.7,1.1,1.1,2,1.1c1.5,0,2.5-1.1,2.7-2.6c0.1-0.4,0.1-0.9,0-1.3C61.9,68,60.9,66.8,59.3,66.8z M59.2,72.5
			c-1,0-1.7-0.8-1.8-1.8c0-0.4,0-0.8,0-1.1c0.1-1,0.8-1.9,1.9-1.9c1.4,0,1.9,1.2,1.9,2.5C61.2,71.3,60.6,72.5,59.2,72.5z"/>
		<path class="st0" d="M84.8,70c-0.5-0.2-1.1-0.4-1.7-0.5c-0.3-0.1-0.8-0.2-1-0.4c-0.2-0.2-0.3-0.4-0.2-0.7c0.1-0.6,0.9-0.7,1.4-0.7
			c0.3,0,0.7,0,1,0.2c0.3,0.2,0.5,0.5,0.6,1c0.3,0,0.6,0,0.9,0c-0.1-0.6-0.3-1.2-0.8-1.6c-0.4-0.3-1-0.5-1.7-0.5
			c-0.9,0-2,0.4-2.3,1.3c-0.1,0.3-0.1,0.6,0.1,0.9c0.2,0.5,0.7,0.8,1.2,1c0.6,0.2,1.2,0.3,1.7,0.5c0.5,0.1,1,0.4,1,0.9
			c0,0.9-0.8,1-1.5,1.1c-1.1,0-1.6-0.3-1.8-1.4c-0.3,0-0.6,0-0.9,0c0.1,1,0.5,1.8,1.6,2.1c0.4,0.1,0.8,0.1,1.2,0.1
			c0.4,0,0.7,0,1-0.1c0.5-0.1,1-0.4,1.3-1c0.2-0.4,0.2-0.8,0.1-1.2C85.7,70.5,85.3,70.2,84.8,70z"/>
		<path class="st0" d="M64.5,67.8c0-0.3,0-0.5,0-0.8c-0.3,0-0.6,0-0.9,0c0,2.1,0,4.1,0,6.2c0.3,0,0.6,0,0.9,0c0-1.1,0-2.2,0-3.3
			c0-0.4,0.1-0.8,0.3-1.2c0.5-1,1.4-1.1,2.4-0.8c0-0.3,0-0.6,0-0.9C66.2,66.6,65.1,66.9,64.5,67.8z"/>
		<path class="st0" d="M70.7,66.8c-1.3,0-2.3,0.8-2.7,2c-0.1,0.4-0.2,0.8-0.2,1.2h0c0,0.2,0,0.5,0,0.7c0.2,1.4,1.3,2.6,2.8,2.6
			c1.5,0,2.4-0.9,2.8-2.3c-0.3,0-0.6,0-0.9,0c-0.3,0.9-0.9,1.5-1.8,1.5v0h0c-1.2,0-1.9-1-1.9-2.1c1.6,0,3.2,0,4.8,0
			C73.5,68.6,72.8,66.8,70.7,66.8z M68.8,69.6c0.1-1.1,0.8-2,1.9-2c1.2,0,1.8,0.8,1.9,2L68.8,69.6L68.8,69.6z"/>
		<path class="st0" d="M55.3,67c-0.4,0-0.7,0-1.1,0c-0.6,0.7-1.1,1.5-1.6,2.2c-0.5-0.7-1.1-1.5-1.6-2.2c-0.4,0-0.7,0-1.1,0
			c0.7,1,1.5,1.9,2.2,2.9c-0.8,1.1-1.7,2.2-2.5,3.3c0.4,0,0.7,0,1.1,0c0.6-0.8,1.3-1.7,1.9-2.6c0.6,0.9,1.3,1.7,1.9,2.6
			c0.4,0,0.7,0,1.1,0c-0.8-1.1-1.6-2.2-2.5-3.3L55.3,67z"/>
	</g>
</g>
<text transform="matrix(1 0 0 1 108 59.2988)"><tspan x="0" y="0" class="st0 st1 st2">圆通</tspan><tspan x="64.7" y="0" class="st0 st3 st2">客户管家</tspan></text>
</svg>
