<?xml version="1.0" encoding="UTF-8"?>
<svg width="15px" height="16px" viewBox="0 0 15 16" version="1.1" xmlns="http://www.w3.org/2000/svg" xmlns:xlink="http://www.w3.org/1999/xlink">
    <!-- Generator: Sketch 50.2 (55047) - http://www.bohemiancoding.com/sketch -->
    <title>账单结算</title>
    <desc>Created with Sketch.</desc>
    <defs></defs>
    <g id="Page-1" stroke="none" stroke-width="1" fill="none" fill-rule="evenodd">
        <g id="首页" transform="translate(-13.000000, -282.000000)">
            <g id="left_nav" transform="translate(0.000000, -1.000000)">
                <g id="菜单文字-copy-9" transform="translate(0.000000, 271.000000)">
                    <g id="账单结算" transform="translate(12.000000, 12.000000)">
                        <rect id="Rectangle-2" fill-opacity="0.2" fill="#FF0000" opacity="0" x="0" y="0" width="16" height="16"></rect>
                        <g id="账单" transform="translate(1.000000, 0.000000)" fill="#FFFFFF" fill-rule="nonzero">
                            <path d="M14.4502815,12.9000235 L12.5497403,12.9000235 L12.5497403,11.6005492 L14.4502597,11.6005492 C14.7486796,11.6005492 15,11.350057 15,11.0525731 C15,10.7550892 14.7487013,10.504597 14.4502597,10.504597 L13.7905845,10.504597 L14.1204112,9.76876264 C14.2460823,9.48694266 14.1204112,9.17381657 13.8377057,9.0485488 C13.5549784,8.92332436 13.2408442,9.0485488 13.1151949,9.33036878 L12.5968615,10.5046187 L11.6544372,10.5046187 L11.1361255,9.33036878 C11.0104762,9.0485488 10.696342,8.9233027 10.4136147,9.0485488 C10.1308874,9.17381657 10.0052381,9.48694266 10.1308874,9.76876264 L10.4607359,10.504597 L9.54974027,10.504597 C9.25132039,10.504597 9,10.7551109 9,11.0525731 C9,11.3500353 9.25132039,11.6005492 9.54974027,11.6005492 L11.4502597,11.6005492 L11.4502597,12.9000235 L9.549762,12.9000235 C9.25132039,12.9000235 9,13.1505374 9,13.4479996 C9,13.7454618 9.25132039,13.9959757 9.54974027,13.9959757 L11.4502597,13.9959757 L11.4502597,15.4520239 C11.4502597,15.7494861 11.7015801,16 12,16 C12.2984199,16 12.5497403,15.7494861 12.5497403,15.4520239 L12.5497403,13.9959757 L14.4502597,13.9959757 C14.7486796,13.9959757 15,13.7454618 15,13.4479996 C15,13.1505374 14.7487013,12.9000235 14.4502597,12.9000235 L14.4502815,12.9000235 Z" id="Shape"></path>
                            <path d="M8.34915311,14.969136 L1.31382811,14.969136 C1.13018502,14.969136 0.988924108,14.8094303 0.988924108,14.6352188 L0.988924108,1.35025522 C0.988924108,1.16151765 1.14429938,1.01633799 1.31382811,1.01633799 L12.6861719,1.01633799 C12.8698345,1.01633799 13.0110954,1.17602356 13.0110954,1.35025522 L13.0110954,8.1161377 C13.0110954,8.39199111 13.2371403,8.62430669 13.5055477,8.62430669 C13.7739552,8.62430669 14,8.39199111 14,8.1161377 L14,1.35027531 C14,0.609810828 13.406669,0 12.6861719,0 L1.31382811,0 C0.593350555,0 0,0.609810828 0,1.35027531 L0,14.6497046 C0,15.3901892 0.593350555,16 1.31382811,16 L8.3350192,16 C8.60342666,16 8.82947148,15.7676844 8.82947148,15.491831 C8.82947148,15.2159776 8.61756057,14.969136 8.34915311,14.969136 Z" id="Shape"></path>
                            <path d="M10.540144,2 L2.45985601,2 C2.21022872,2 2,2.22747939 2,2.49763329 C2,2.7677872 2.21022872,2.99526658 2.45985601,2.99526658 L10.540144,2.99526658 C10.7897713,2.99526658 11,2.76776752 11,2.49763329 C11,2.22749906 10.7897713,2 10.540144,2 Z M11,4.91469523 C11,4.644561 10.7897713,4.41706194 10.540144,4.41706194 L2.45985601,4.41706194 C2.21022872,4.41706194 2,4.644561 2,4.91469523 C2,5.18482946 2.21022872,5.41232852 2.45985601,5.41232852 L10.540144,5.41232852 C10.7897713,5.41232852 11,5.18482946 11,4.91469523 Z M2.02628995,7.4597217 C2.02628995,7.75810917 2.24981791,8 2.52555362,8 C2.80128932,8 3.02481728,7.75810917 3.02481728,7.4597217 C3.02481728,7.1613288 2.80128525,6.91943356 2.52554453,6.91943356 C2.2498038,6.91943356 2.02627177,7.1613288 2.02627177,7.4597217 L2.02628995,7.4597217 Z M3.7737355,7.4597217 C3.7737355,7.75810917 3.99726346,8 4.27299916,8 C4.54873487,8 4.77226283,7.75810917 4.77226283,7.4597217 C4.77226283,7.1613288 4.5487308,6.91943356 4.27299007,6.91943356 C3.99724935,6.91943356 3.77371732,7.1613288 3.77371732,7.4597217 L3.7737355,7.4597217 Z M5.52118105,7.4597217 C5.52118105,7.75810917 5.744709,8 6.02044471,8 C6.29618042,8 6.51970837,7.75810917 6.51970837,7.4597217 C6.51970837,7.1613288 6.29617635,6.91943356 6.02043562,6.91943356 C5.74469489,6.91943356 5.52116287,7.1613288 5.52116287,7.4597217 L5.52118105,7.4597217 Z" id="Shape"></path>
                        </g>
                    </g>
                </g>
            </g>
        </g>
    </g>
</svg>