<?xml version="1.0" encoding="UTF-8"?>
<svg width="16px" height="16px" viewBox="0 0 16 16" version="1.1" xmlns="http://www.w3.org/2000/svg" xmlns:xlink="http://www.w3.org/1999/xlink">
    <!-- Generator: Sketch 50.2 (55047) - http://www.bohemiancoding.com/sketch -->
    <title>Rectangle 2</title>
    <desc>Created with Sketch.</desc>
    <defs></defs>
    <g id="Page-1" stroke="none" stroke-width="1" fill="none" fill-rule="evenodd">
        <g id="首页" transform="translate(-12.000000, -122.000000)">
            <g id="left_nav" transform="translate(0.000000, -1.000000)">
                <g id="菜单文字-copy-11" transform="translate(0.000000, 111.000000)">
                    <g id="Group-13" transform="translate(12.000000, 12.000000)">
                        <rect id="Rectangle-2" fill-opacity="0.2" fill="#FF0000" opacity="0" x="0" y="0" width="16" height="16"></rect>
                        <g id="订单-(1)" transform="translate(1.000000, 0.000000)" fill="#FFFFFF" fill-rule="nonzero">
                            <path d="M4.65743802,2.17994638 L8.39449036,2.17994638 C8.86421613,2.17857363 9.24459782,1.85964606 9.24623508,1.46580876 L9.24623508,0.714137623 C9.24459782,0.320300316 8.86421613,0.00137274622 8.39449036,0 L4.65743802,0 C4.18757673,0.00109966008 3.80700485,0.320186698 3.8056933,0.714137623 L3.8056933,1.46580876 C3.80700485,1.85975968 4.18757673,2.17884672 4.65743802,2.17994638 Z M4.65743802,0.714137623 L8.39449036,0.714137623 L8.39449036,1.46580876 L4.65743802,1.46580876 L4.65743802,0.714137623 Z M10.7849862,0.920822163 C10.5456628,0.920822163 10.3516529,1.08348804 10.3516529,1.28414656 C10.3516529,1.48480508 10.5456628,1.64747096 10.7849862,1.64747096 C11.118641,1.64747096 12.132438,1.64747096 12.132438,3.34298481 L12.132438,9.52975871 C12.132438,9.63835567 11.572865,9.80050045 11.2794995,9.80050045 L8.74784206,9.80050045 C7.99846189,9.80050045 7.43471074,10.2784272 7.43471074,10.9127435 L7.43471074,12.8089366 C7.43471074,13.3319035 7.58631772,13.6672029 7.89848485,13.8343521 C8.04113866,13.9111707 8.18976125,13.9379446 8.3312213,13.9379446 C8.58429752,13.9379446 8.80812672,13.8508668 8.91675849,13.8083289 C9.48289715,13.5873816 11.4928834,11.8440751 12.1046832,11.2282752 C12.8495868,10.4791063 13,10.0319571 13,9.55453083 L13,3.34248436 C12.9994031,1.80361037 12.1924242,0.920822163 10.7849862,0.920822163 Z M11.4385675,10.7631099 C10.683517,11.522538 8.87557392,13.016622 8.55087236,13.1484897 C8.49118457,13.1740125 8.42821396,13.1935299 8.36315427,13.207042 C8.34047291,13.1635031 8.30078053,13.0521537 8.30078053,12.8081859 L8.30078053,10.9119929 C8.30078053,10.7263271 8.44015152,10.5261483 8.74784206,10.5261483 L11.2794995,10.5261483 C11.3660468,10.5261483 11.5188476,10.5151385 11.6982094,10.4846113 C11.6250918,10.569437 11.538843,10.6620197 11.4385675,10.7631099 Z M6.20812672,13.2733512 L2.85964187,13.2733512 C1.76078972,13.2733512 0.866666667,12.5124218 0.866666667,11.5780876 L0.866666667,3.34248436 C0.866666667,2.70941912 1.05528007,1.64697051 2.31887052,1.64697051 C2.55819392,1.64697051 2.75220386,1.48430464 2.75220386,1.28364611 C2.75220386,1.08298759 2.55819392,0.920321716 2.31887052,0.920321716 C0.888751148,0.920321716 0,1.84815013 0,3.34248436 L0,11.5778374 C0,12.9130295 1.28328742,14 2.86023875,14 L6.2087236,14 C6.44178715,13.9926129 6.62613495,13.831984 6.62597433,13.6364345 C6.6258137,13.4408849 6.44120219,13.2804692 6.20812672,13.2733512 Z" id="Shape"></path>
                            <path d="M10.5531028,4.00000008 L2.46378792,4.00000008 C2.29820653,3.99991592 2.14514218,4.06503548 2.06225273,4.17082885 C1.97936327,4.27662223 1.9792416,4.40701689 2.06193353,4.51289443 C2.14462547,4.61877197 2.29756815,4.68404708 2.46314954,4.68413124 L10.5531028,4.68413124 C10.7996259,4.67457818 10.9928756,4.52426397 10.9928756,4.34206566 C10.9928756,4.15986735 10.7996259,4.00955315 10.5531028,4.00000008 Z M10.5531028,8.31539767 L2.46378792,8.31539767 C2.20764499,8.31539767 2.00000011,8.46865112 2.00000011,8.65769884 C2.00000011,8.84674655 2.20764499,9 2.46378792,9 L10.5531028,9 C10.8025535,8.99316827 11,8.841934 11,8.65769884 C11,8.47346367 10.8025535,8.3222294 10.5531028,8.31539767 Z M10.5531028,6.1574633 L2.46378792,6.1574633 C2.2145037,6.16416476 2.01705375,6.31519431 2.01688196,6.49930187 C2.01671016,6.68340944 2.21387805,6.83463958 2.46314954,6.84159446 L10.5531028,6.84159446 C10.8023795,6.83476514 10.9996867,6.68363564 10.9996867,6.49952888 C10.9996867,6.31542211 10.8023795,6.16429261 10.5531028,6.1574633 Z" id="Shape"></path>
                        </g>
                    </g>
                </g>
            </g>
        </g>
    </g>
</svg>