<?xml version="1.0" encoding="UTF-8"?>
<svg width="20px" height="20px" viewBox="0 0 20 20" version="1.1" xmlns="http://www.w3.org/2000/svg" xmlns:xlink="http://www.w3.org/1999/xlink">
    <!-- Generator: Sketch 50.2 (55047) - http://www.bohemiancoding.com/sketch -->
    <title>Group 22</title>
    <desc>Created with Sketch.</desc>
    <defs></defs>
    <g id="Page-1" stroke="none" stroke-width="1" fill="none" fill-rule="evenodd">
        <g id="手机号登录" transform="translate(-549.000000, -290.000000)" fill="#8C9099" fill-rule="nonzero">
            <g id="Group-10-Copy">
                <g id="Group-22" transform="translate(13.000000, 13.000000)">
                    <g id="Group-2" transform="translate(536.000000, 277.000000)">
                        <path d="M16.4559334,0.437170675 C16.0849618,0.148453835 15.6232949,-0.00593642888 15.1492019,0.000174692629 L4.85079806,0.000174692629 C3.83067314,0.000174692629 3,0.669918534 3,1.49166098 L3,17.5085137 C3,18.3302562 3.83067314,19 4.85079806,19 L15.1492019,19 C16.1693269,19 17,18.3302562 17,17.5085137 L17,1.49166098 C16.9925722,1.07743256 16.7922416,0.689158834 16.4559334,0.437170675 Z M15.4455239,17.0050183 C15.4447886,17.13488 15.3862682,17.257994 15.2852186,17.3422652 C15.1816614,17.4345451 15.0464224,17.485406 14.9063151,17.4847639 L5.09368494,17.4847639 C4.81098857,17.4982436 4.57016083,17.2860955 4.55447606,17.0097683 L4.55447606,13.9080468 L15.4455239,13.9080468 L15.4455239,17.0050183 Z M15.4455239,12.3928107 L4.55447606,12.3928107 L4.55447606,1.90015722 C4.55447606,1.68165923 4.79736294,1.50591085 5.09368494,1.50591085 L14.9063151,1.50591085 C15.2026371,1.50591085 15.4455239,1.68165923 15.4455239,1.90015722 L15.4455239,12.3928107 Z M10,15 C10.5513363,15.002283 10.997717,15.4486637 11,16 C11,16.5522847 10.5522847,17 10,17 C9.44771525,17 9,16.5522847 9,16 C9,15.4477153 9.44771525,15 10,15 Z" id="Shape"></path>
                    </g>
                </g>
            </g>
        </g>
    </g>
</svg>