<?xml version="1.0" encoding="UTF-8"?>
<svg width="16px" height="16px" viewBox="0 0 16 16" version="1.1" xmlns="http://www.w3.org/2000/svg" xmlns:xlink="http://www.w3.org/1999/xlink">
    <!-- Generator: Sketch 50.2 (55047) - http://www.bohemiancoding.com/sketch -->
    <title>Rectangle 2</title>
    <desc>Created with Sketch.</desc>
    <defs></defs>
    <g id="Page-1" stroke="none" stroke-width="1" fill="none" fill-rule="evenodd">
        <g id="首页" transform="translate(-12.000000, -162.000000)">
            <g id="left_nav" transform="translate(0.000000, -1.000000)">
                <g id="菜单文字-copy" transform="translate(12.000000, 163.000000)">
                    <g id="Group-13">
                        <rect id="Rectangle-2" fill-opacity="0.2" fill="#FF0000" opacity="0" x="0" y="0" width="16" height="16"></rect>
                        <g id="打印" transform="translate(1.000000, 1.000000)" fill="#FFFFFF" fill-rule="nonzero">
                            <path d="M9.33385131,8.86817725 L4.66770699,8.86817725 C4.40986579,8.86817725 4.20046749,9.07757562 4.20046749,9.3354169 C4.20046749,9.59325818 4.40986579,9.80265655 4.66770699,9.80265655 L9.33541398,9.80265655 C9.59325518,9.80265655 9.80265348,9.59325818 9.80265348,9.3354169 C9.80109081,9.07601295 9.5916925,8.86817725 9.33385131,8.86817725 Z M13.068642,2.80031253 L11.2012466,2.80031253 L11.2012466,0.93291662 C11.2012466,0.417234066 10.7840127,0 10.2683303,0 L3.73322799,0 C3.2175456,0 2.80031166,0.417234066 2.80031166,0.93291662 L2.80031166,2.80031253 L0.932916329,2.80031253 C0.417233936,2.80031253 0,3.2175466 0,3.73322916 L0,8.4009376 C0,8.91662016 0.417233936,9.33385422 0.932916329,9.33385422 L2.33307216,9.33385422 L2.33307216,13.0670834 C2.33307216,13.5827659 2.75030609,14 3.26598849,14 L10.7340071,14 C11.2496895,14 11.6669235,13.5827659 11.6669235,13.0670834 L11.6669235,9.33385422 L13.0670793,9.33385422 C13.5827617,9.33385422 13.9999956,8.91662016 13.9999956,8.4009376 L13.9999956,3.73322916 C14.0015583,3.2175466 13.5843244,2.80031253 13.068642,2.80031253 Z M3.73322799,1.40015627 C3.73322799,1.14231499 3.94262629,0.93291662 4.20046749,0.93291662 L9.80109081,0.93291662 C10.058932,0.93291662 10.2683303,1.14231499 10.2683303,1.40015627 L10.2683303,2.80031253 L3.73322799,2.80031253 L3.73322799,1.40015627 Z M10.7340071,12.6014064 C10.7340071,12.8592477 10.5246088,13.0686461 10.2667676,13.0686461 L3.73322799,13.0686461 C3.47538679,13.0686461 3.26598849,12.8592477 3.26598849,12.6014064 L3.26598849,7.93369796 C3.26598849,7.67585668 3.47538679,7.46645831 3.73322799,7.46645831 L10.2667676,7.46645831 C10.5246088,7.46645831 10.7340071,7.67585668 10.7340071,7.93369796 L10.7340071,12.6014064 Z M13.068642,7.93369796 C13.068642,8.19153923 12.8592437,8.4009376 12.6014025,8.4009376 L11.6684861,8.4009376 L11.6684861,7.46802098 C11.6684861,6.95233843 11.2512522,6.53510436 10.7355698,6.53510436 L3.26755116,6.53510436 C2.75186877,6.53510436 2.33463483,6.95233843 2.33463483,7.46802098 L2.33463483,8.4009376 L1.4017185,8.4009376 C1.14387731,8.4009376 0.934479003,8.19153923 0.934479003,7.93369796 L0.934479003,4.2004688 C0.934479003,3.94262753 1.14387731,3.73322916 1.4017185,3.73322916 L12.6029651,3.73322916 C12.8608063,3.73322916 13.0702046,3.94262753 13.0702046,4.2004688 L13.068642,7.93369796 Z M11.6684861,4.66770845 C11.4106449,4.66770845 11.2012466,4.87710682 11.2012466,5.1349481 C11.2012466,5.39278937 11.4106449,5.60218774 11.6684861,5.60218774 C11.9263273,5.60218774 12.1357256,5.39278937 12.1357256,5.1349481 C12.134163,4.87554415 11.9263273,4.66770845 11.6684861,4.66770845 Z M9.33385131,10.7340105 L4.66770699,10.7340105 C4.40986579,10.7340105 4.20046749,10.9434089 4.20046749,11.2012501 C4.20046749,11.4590914 4.40986579,11.6684898 4.66770699,11.6684898 L9.33541398,11.6684898 C9.59325518,11.6684898 9.80265348,11.4590914 9.80265348,11.2012501 C9.80265348,10.9434089 9.5916925,10.7340105 9.33385131,10.7340105 Z" id="Shape"></path>
                        </g>
                    </g>
                </g>
            </g>
        </g>
    </g>
</svg>