<?xml version="1.0" encoding="UTF-8"?>
<svg width="16px" height="16px" viewBox="0 0 16 16" version="1.1" xmlns="http://www.w3.org/2000/svg" xmlns:xlink="http://www.w3.org/1999/xlink">
    <!-- Generator: Sketch 50.2 (55047) - http://www.bohemiancoding.com/sketch -->
    <title>正确</title>
    <desc>Created with Sketch.</desc>
    <defs></defs>
    <g id="Page-1" stroke="none" stroke-width="1" fill="none" fill-rule="evenodd">
        <g id="注册校验成功" transform="translate(-806.000000, -262.000000)">
            <g id="Group-10-Copy">
                <g id="Group-22" transform="translate(503.000000, 134.000000)">
                    <g id="手机号码" transform="translate(30.000000, 116.000000)">
                        <g id="校验2" transform="translate(203.000000, 12.000000)">
                            <g id="正确" transform="translate(70.000000, 0.000000)">
                                <path d="M8.00000001,0 C12.4182491,0 16,3.58176691 16,7.99999999 C16,12.4182331 12.4182331,16 8.00000001,16 C3.58167098,16 1.56250156e-08,12.4182331 0,7.99999999 C-1.56250156e-08,3.58176689 3.58167097,0 8.00000001,0 Z" id="Shape" fill="#FFFFFF" fill-rule="nonzero"></path>
                                <path d="M8.25,8 C8.38807119,8 8.5,8.11192881 8.5,8.25 C8.5,8.38807119 8.38807119,8.5 8.25,8.5 C8.11192881,8.5 8,8.38807119 8,8.25 C8,8.11192881 8.11192881,8 8.25,8 Z" id="Shape"></path>
                                <path d="M8.00000001,16 C3.58171895,16 1.56250156e-08,12.4182739 0,8.000016 C0,3.58172611 3.58171894,1.56250468e-08 8.00000001,0 C12.4182811,-1.56250468e-08 16,3.5817261 16,8.000016 C16,12.4182739 12.4182811,16 8.00000001,16 Z M12.3969677,5.11504532 C12.1760153,4.8937247 11.8175252,4.8937247 11.596205,5.11504532 L6.66055086,10.0507093 L4.39351405,7.78330023 C4.17219387,7.56226741 3.81371978,7.56226741 3.59275137,7.78330023 C3.37179895,8.00425309 3.37179895,8.36266395 3.59275137,8.58398456 L6.24758616,11.2385049 C6.25179128,11.2434295 6.25331023,11.2495373 6.25786711,11.2541102 C6.4243449,11.4206363 6.66819363,11.4613444 6.87310905,11.3771141 C6.94394523,11.34896 7.00825587,11.3065796 7.06206743,11.2525912 C7.06358638,11.2510243 7.06435385,11.2487858 7.06590479,11.2468672 L12.3969517,5.9158096 C12.6182879,5.69445699 12.6182879,5.3359662 12.3969677,5.11504532 Z" id="Shape" fill="#6DCA6E" fill-rule="nonzero"></path>
                            </g>
                        </g>
                    </g>
                </g>
            </g>
        </g>
    </g>
</svg>