<?xml version="1.0" encoding="UTF-8"?>
<svg width="16px" height="16px" viewBox="0 0 16 16" version="1.1" xmlns="http://www.w3.org/2000/svg" xmlns:xlink="http://www.w3.org/1999/xlink">
    <!-- Generator: Sketch 50.2 (55047) - http://www.bohemiancoding.com/sketch -->
    <title>Shape</title>
    <desc>Created with Sketch.</desc>
    <defs></defs>
    <g id="Page-1" stroke="none" stroke-width="1" fill="none" fill-rule="evenodd">
        <g id="首页" transform="translate(-12.000000, -202.000000)" fill="#FFFFFF" fill-rule="nonzero">
            <g id="left_nav" transform="translate(0.000000, -1.000000)">
                <g id="菜单文字-copy-2" transform="translate(0.000000, 191.000000)">
                    <g id="Group-13" transform="translate(12.000000, 12.000000)">
                        <g id="客服">
                            <path d="M14.857,6.85621695 C14.857,3.06976381 11.787,0 8,0 C4.213,0 1.143,3.06976381 1.143,6.85621695 C0.511944854,6.85640082 0.000367929723,7.36784474 0,7.99891978 L0,11.4270283 C-8.79387964e-09,11.7301496 0.120433498,12.0208511 0.334797166,12.235159 C0.549160833,12.449467 0.83988821,12.5698195 1.143,12.5697311 L2.286,12.5697311 C2.58911179,12.5698195 2.87983917,12.449467 3.09420283,12.235159 C3.3085665,12.0208511 3.42900001,11.7301496 3.429,11.4270283 L3.429,7.99891978 C3.42900001,7.69579838 3.30856651,7.40509692 3.09420284,7.19078898 C2.87983917,6.97648105 2.58911179,6.85612852 2.286,6.85621695 C2.286,3.70045042 4.84433333,1.14236948 8.00033333,1.14236948 C11.1563333,1.14236948 13.7146667,3.70045042 13.7146667,6.85621695 C13.4115549,6.85612852 13.1208275,6.97648105 12.9064638,7.19078898 C12.6921002,7.40509692 12.5716667,7.69579838 12.5716667,7.99891978 L12.5716667,11.4270283 C12.5716667,12.0233804 13.03,12.5070624 13.613,12.5593974 C13.5304579,12.8037682 13.393582,13.0262415 13.2126667,13.2100847 C12.8911814,13.5316737 12.4550483,13.7122724 12.0003333,13.7121006 L10.7533333,13.7121006 C10.5166667,13.0487462 9.889,12.5710645 9.14433333,12.5707311 C8.52610794,12.5619318 7.95102298,12.8866582 7.63923852,13.420595 C7.32745406,13.9545319 7.32726146,14.6149793 7.63873445,15.1490979 C7.95020744,15.6832165 8.52510292,16.0082783 9.14333333,15.9998396 C9.88966666,16.0001729 10.5183333,15.5204911 10.7543333,14.8548034 L12,14.8548034 C13.3575498,14.8546266 14.52765,13.8994581 14.7996667,12.5693977 L14.857,12.5693977 C15.1601118,12.5694862 15.4508392,12.4491336 15.6652028,12.2348257 C15.8795665,12.0205178 16,11.7298163 16,11.4266949 L16,7.99891978 C15.9998159,7.36776851 15.4881313,6.85621692 14.857,6.85621695 Z M2.28566667,11.4270283 L1.143,11.4270283 L1.143,7.99891978 L2.286,7.99891978 L2.286,11.4270283 L2.28566667,11.4270283 Z M9.143,14.8574701 C8.93874078,14.8575037 8.74998309,14.7485486 8.64784378,14.5716549 C8.54570447,14.3947612 8.54570447,14.1768095 8.64784378,13.9999158 C8.74998309,13.8230222 8.93874078,13.714067 9.143,13.7141006 C9.45868606,13.7141525 9.71457264,13.9700893 9.71457264,14.2857854 C9.71457264,14.6014814 9.45868606,14.8574182 9.143,14.8574701 Z M14.857,11.4270283 L13.714,11.4270283 L13.714,7.99891978 L14.857,7.99891978 L14.857,11.4270283 Z" id="Shape"></path>
                        </g>
                    </g>
                </g>
            </g>
        </g>
    </g>
</svg>