<?xml version="1.0" encoding="UTF-8"?>
<svg width="16px" height="16px" viewBox="0 0 16 16" version="1.1" xmlns="http://www.w3.org/2000/svg" xmlns:xlink="http://www.w3.org/1999/xlink">
    <!-- Generator: Sketch 50.2 (55047) - http://www.bohemiancoding.com/sketch -->
    <title>Rectangle 2</title>
    <desc>Created with Sketch.</desc>
    <defs></defs>
    <g id="Page-1" stroke="none" stroke-width="1" fill="none" fill-rule="evenodd">
        <g id="首页" transform="translate(-12.000000, -322.000000)">
            <g id="left_nav" transform="translate(0.000000, -1.000000)">
                <g id="菜单文字-copy-4" transform="translate(0.000000, 311.000000)">
                    <g id="Group-13" transform="translate(12.000000, 12.000000)">
                        <rect id="Rectangle-2" fill-opacity="0.2" fill="#FF0000" opacity="0" x="0" y="0" width="16" height="16"></rect>
                        <g id="账户管理-(1)" transform="translate(0.000000, 2.000000)" fill="#FFFFFF" fill-rule="nonzero">
                            <path d="M14.6462775,0.982299474 C14.8391562,0.982299474 14.9998884,1.14192314 14.9998884,1.3296125 L14.9998884,9.6703875 C14.9998884,9.85983097 14.8373702,10.0177005 14.6462775,10.0177005 L1.35372251,10.0177005 C1.16084384,10.0177005 1.00011162,9.85807686 1.00011162,9.6703875 L1.00011162,1.33136661 C1.00011162,1.14192314 1.16262976,0.98405358 1.35372251,0.98405358 L14.6462775,0.98405358 L14.6462775,0.982299474 Z M14.6462775,0 L1.35372251,0 C0.60899654,0 0,0.598150215 0,1.3296125 L0,9.6703875 C0,10.4018498 0.60899654,11 1.35372251,11 L14.6462775,11 C15.3910035,11 16,10.4018498 16,9.6703875 L16,1.33136661 C16,0.599904321 15.3910035,0 14.6462775,0 Z" id="Shape"></path>
                            <path d="M13.4922533,3.61524213 L10.4584215,3.61524213 C10.1801546,3.61524213 9.9506748,3.38184705 9.9506748,3.09473406 C9.9506748,2.80947341 10.1783477,2.57422599 10.4584215,2.57422599 L13.4922533,2.57422599 C13.7705202,2.57422599 14,2.80762106 14,3.09473406 C13.9981931,3.38184705 13.7705202,3.61524213 13.4922533,3.61524213 Z M13.4922533,5.92511246 L10.4584215,5.92511246 C10.1801546,5.92511246 9.9506748,5.69171739 9.9506748,5.40460439 C9.9506748,5.11934374 10.1783477,4.88409632 10.4584215,4.88409632 L13.4922533,4.88409632 C13.7705202,4.88409632 14,5.1174914 14,5.40460439 C13.9981931,5.69171739 13.7705202,5.92511246 13.4922533,5.92511246 Z M13.4561147,8.30722413 L10.9300297,8.30722413 C10.6517628,8.30722413 10.422283,8.07382906 10.422283,7.78671606 C10.422283,7.50145541 10.6499559,7.26620799 10.9300297,7.26620799 L13.4579217,7.26620799 C13.7361885,7.26620799 13.9656684,7.49960307 13.9656684,7.78671606 C13.9638614,8.07382906 13.7361885,8.30722413 13.4561147,8.30722413 Z M7.00899634,5.79544853 C7.42639666,5.39349034 7.68478734,4.83593543 7.68478734,4.22095793 C7.68478734,2.99470759 6.66025927,2 5.39721674,2 C4.13417421,2 3.10964614,2.99470759 3.10964614,4.22095793 C3.10964614,4.86001588 3.39152688,5.43053718 3.83422419,5.83620005 C2.85667625,6.37523154 2.15016748,7.36993914 2.00019248,8.5535856 C2.00019248,8.55729029 1.97489549,9 2.50432533,9 C2.95425035,9 3.01026512,8.56099497 3.01026512,8.55914263 C3.22167567,7.35882509 4.23536216,6.44191585 5.45865229,6.44191585 C6.68194241,6.44191585 7.6956289,7.3551204 7.90703946,8.55543795 C7.90703946,8.55729029 7.95401958,8.99814766 8.41297924,8.99814766 C8.94060216,8.99814766 8.92072595,8.56284731 8.92072595,8.56284731 C8.77255787,7.34585869 8.03171747,6.32521831 7.00899634,5.79544853 Z M5.39721674,3.03731146 C6.10011166,3.03731146 6.67290777,3.56893358 6.67290777,4.22095793 C6.67290777,4.87298227 6.10011166,5.40460439 5.39721674,5.40460439 C4.69432183,5.40460439 4.12152571,4.87298227 4.12152571,4.22095793 C4.12152571,3.56893358 4.6925149,3.03731146 5.39721674,3.03731146 Z" id="Shape"></path>
                        </g>
                    </g>
                </g>
            </g>
        </g>
    </g>
</svg>